<mxfile host="app.diagrams.net" modified="2022-06-08T12:58:46.651Z" agent="5.0 (Windows NT 10.0; Win64; x64) AppleWebKit/537.36 (KHTML, like Gecko) Chrome/102.0.5005.63 Safari/537.36 Edg/102.0.1245.33" etag="HGXBSMim1vR2DVf0E3IA" version="19.0.1" type="github">
  <diagram id="CchY4F5y-I6gC3KCYigE" name="Page-1">
    <mxGraphModel dx="2272" dy="772" grid="1" gridSize="10" guides="1" tooltips="1" connect="1" arrows="1" fold="1" page="1" pageScale="1" pageWidth="850" pageHeight="1100" math="0" shadow="0">
      <root>
        <mxCell id="0" />
        <mxCell id="1" parent="0" />
        <mxCell id="g6Zyt23YArlqI2WEJ_og-30" value="" style="ellipse;whiteSpace=wrap;html=1;dashed=1;" vertex="1" parent="1">
          <mxGeometry x="-19" y="530" width="720" height="560" as="geometry" />
        </mxCell>
        <mxCell id="g6Zyt23YArlqI2WEJ_og-10" style="edgeStyle=orthogonalEdgeStyle;rounded=0;orthogonalLoop=1;jettySize=auto;html=1;exitX=1;exitY=0.5;exitDx=0;exitDy=0;entryX=0;entryY=0.5;entryDx=0;entryDy=0;" edge="1" parent="1" source="g6Zyt23YArlqI2WEJ_og-1" target="g6Zyt23YArlqI2WEJ_og-2">
          <mxGeometry relative="1" as="geometry" />
        </mxCell>
        <mxCell id="g6Zyt23YArlqI2WEJ_og-1" value="File APK" style="rounded=0;whiteSpace=wrap;html=1;" vertex="1" parent="1">
          <mxGeometry x="-90" y="220" width="120" height="60" as="geometry" />
        </mxCell>
        <mxCell id="g6Zyt23YArlqI2WEJ_og-11" style="edgeStyle=orthogonalEdgeStyle;rounded=0;orthogonalLoop=1;jettySize=auto;html=1;exitX=1;exitY=0.5;exitDx=0;exitDy=0;entryX=0;entryY=0.5;entryDx=0;entryDy=0;" edge="1" parent="1" source="g6Zyt23YArlqI2WEJ_og-2" target="g6Zyt23YArlqI2WEJ_og-3">
          <mxGeometry relative="1" as="geometry" />
        </mxCell>
        <mxCell id="g6Zyt23YArlqI2WEJ_og-2" value="Tính năng gốc" style="rounded=0;whiteSpace=wrap;html=1;" vertex="1" parent="1">
          <mxGeometry x="160" y="220" width="120" height="60" as="geometry" />
        </mxCell>
        <mxCell id="g6Zyt23YArlqI2WEJ_og-12" style="edgeStyle=orthogonalEdgeStyle;rounded=0;orthogonalLoop=1;jettySize=auto;html=1;exitX=1;exitY=0.5;exitDx=0;exitDy=0;entryX=0;entryY=0.5;entryDx=0;entryDy=0;" edge="1" parent="1" source="g6Zyt23YArlqI2WEJ_og-3" target="g6Zyt23YArlqI2WEJ_og-4">
          <mxGeometry relative="1" as="geometry" />
        </mxCell>
        <mxCell id="g6Zyt23YArlqI2WEJ_og-13" style="edgeStyle=orthogonalEdgeStyle;rounded=0;orthogonalLoop=1;jettySize=auto;html=1;exitX=0.5;exitY=1;exitDx=0;exitDy=0;entryX=0.5;entryY=0;entryDx=0;entryDy=0;" edge="1" parent="1" source="g6Zyt23YArlqI2WEJ_og-3" target="g6Zyt23YArlqI2WEJ_og-5">
          <mxGeometry relative="1" as="geometry" />
        </mxCell>
        <mxCell id="g6Zyt23YArlqI2WEJ_og-3" value="Tính năng lựa chọn (API, Permission, ...)" style="rounded=0;whiteSpace=wrap;html=1;" vertex="1" parent="1">
          <mxGeometry x="420" y="220" width="120" height="60" as="geometry" />
        </mxCell>
        <mxCell id="g6Zyt23YArlqI2WEJ_og-14" style="edgeStyle=orthogonalEdgeStyle;rounded=0;orthogonalLoop=1;jettySize=auto;html=1;exitX=0.5;exitY=1;exitDx=0;exitDy=0;entryX=0.5;entryY=0;entryDx=0;entryDy=0;" edge="1" parent="1" source="g6Zyt23YArlqI2WEJ_og-4" target="g6Zyt23YArlqI2WEJ_og-6">
          <mxGeometry relative="1" as="geometry" />
        </mxCell>
        <mxCell id="g6Zyt23YArlqI2WEJ_og-4" value="Huấn luyện" style="rounded=0;whiteSpace=wrap;html=1;" vertex="1" parent="1">
          <mxGeometry x="630" y="220" width="120" height="60" as="geometry" />
        </mxCell>
        <mxCell id="g6Zyt23YArlqI2WEJ_og-17" style="edgeStyle=orthogonalEdgeStyle;rounded=0;orthogonalLoop=1;jettySize=auto;html=1;exitX=0;exitY=0.5;exitDx=0;exitDy=0;entryX=0.5;entryY=0;entryDx=0;entryDy=0;" edge="1" parent="1" source="g6Zyt23YArlqI2WEJ_og-5" target="g6Zyt23YArlqI2WEJ_og-7">
          <mxGeometry relative="1" as="geometry" />
        </mxCell>
        <mxCell id="g6Zyt23YArlqI2WEJ_og-5" value="Kiểm tra" style="rounded=0;whiteSpace=wrap;html=1;" vertex="1" parent="1">
          <mxGeometry x="420" y="330" width="120" height="60" as="geometry" />
        </mxCell>
        <mxCell id="g6Zyt23YArlqI2WEJ_og-15" style="edgeStyle=orthogonalEdgeStyle;rounded=0;orthogonalLoop=1;jettySize=auto;html=1;exitX=0;exitY=0.5;exitDx=0;exitDy=0;entryX=1;entryY=0.5;entryDx=0;entryDy=0;" edge="1" parent="1" source="g6Zyt23YArlqI2WEJ_og-6" target="g6Zyt23YArlqI2WEJ_og-7">
          <mxGeometry relative="1" as="geometry" />
        </mxCell>
        <mxCell id="g6Zyt23YArlqI2WEJ_og-6" value="Học sâu" style="rounded=0;whiteSpace=wrap;html=1;" vertex="1" parent="1">
          <mxGeometry x="630" y="420" width="120" height="60" as="geometry" />
        </mxCell>
        <mxCell id="g6Zyt23YArlqI2WEJ_og-16" style="edgeStyle=orthogonalEdgeStyle;rounded=0;orthogonalLoop=1;jettySize=auto;html=1;exitX=0;exitY=0.5;exitDx=0;exitDy=0;entryX=1;entryY=0.5;entryDx=0;entryDy=0;" edge="1" parent="1" source="g6Zyt23YArlqI2WEJ_og-7" target="g6Zyt23YArlqI2WEJ_og-8">
          <mxGeometry relative="1" as="geometry" />
        </mxCell>
        <mxCell id="g6Zyt23YArlqI2WEJ_og-7" value="Model" style="rounded=0;whiteSpace=wrap;html=1;" vertex="1" parent="1">
          <mxGeometry x="200" y="420" width="120" height="60" as="geometry" />
        </mxCell>
        <mxCell id="g6Zyt23YArlqI2WEJ_og-8" value="Phân loại" style="rounded=0;whiteSpace=wrap;html=1;" vertex="1" parent="1">
          <mxGeometry x="-90" y="420" width="120" height="60" as="geometry" />
        </mxCell>
        <mxCell id="g6Zyt23YArlqI2WEJ_og-9" value="" style="rounded=0;whiteSpace=wrap;html=1;" vertex="1" parent="1">
          <mxGeometry x="-300" y="320" width="120" height="60" as="geometry" />
        </mxCell>
        <mxCell id="g6Zyt23YArlqI2WEJ_og-18" value="AndroPyTool" style="text;html=1;strokeColor=none;fillColor=none;align=center;verticalAlign=middle;whiteSpace=wrap;rounded=0;" vertex="1" parent="1">
          <mxGeometry x="70" y="220" width="60" height="30" as="geometry" />
        </mxCell>
        <mxCell id="g6Zyt23YArlqI2WEJ_og-19" value="Trích chọn" style="text;html=1;strokeColor=none;fillColor=none;align=center;verticalAlign=middle;whiteSpace=wrap;rounded=0;" vertex="1" parent="1">
          <mxGeometry x="320" y="220" width="60" height="30" as="geometry" />
        </mxCell>
        <mxCell id="g6Zyt23YArlqI2WEJ_og-29" style="edgeStyle=none;rounded=0;orthogonalLoop=1;jettySize=auto;html=1;exitX=0.5;exitY=0;exitDx=0;exitDy=0;exitPerimeter=0;entryX=0.55;entryY=0.95;entryDx=0;entryDy=0;entryPerimeter=0;" edge="1" parent="1" source="g6Zyt23YArlqI2WEJ_og-20" target="g6Zyt23YArlqI2WEJ_og-21">
          <mxGeometry relative="1" as="geometry" />
        </mxCell>
        <mxCell id="g6Zyt23YArlqI2WEJ_og-20" value="Server:&lt;br&gt;172.16.209.6" style="shape=mxgraph.cisco.servers.fileserver;sketch=0;html=1;pointerEvents=1;dashed=0;fillColor=#036897;strokeColor=#ffffff;strokeWidth=2;verticalLabelPosition=bottom;verticalAlign=top;align=center;outlineConnect=0;" vertex="1" parent="1">
          <mxGeometry x="310" y="970" width="43" height="62" as="geometry" />
        </mxCell>
        <mxCell id="g6Zyt23YArlqI2WEJ_og-21" value="" style="ellipse;shape=cloud;whiteSpace=wrap;html=1;" vertex="1" parent="1">
          <mxGeometry x="271" y="800" width="120" height="80" as="geometry" />
        </mxCell>
        <mxCell id="g6Zyt23YArlqI2WEJ_og-26" style="rounded=0;orthogonalLoop=1;jettySize=auto;html=1;exitX=0.86;exitY=0.85;exitDx=0;exitDy=0;exitPerimeter=0;entryX=0.07;entryY=0.4;entryDx=0;entryDy=0;entryPerimeter=0;" edge="1" parent="1" source="g6Zyt23YArlqI2WEJ_og-22" target="g6Zyt23YArlqI2WEJ_og-21">
          <mxGeometry relative="1" as="geometry" />
        </mxCell>
        <mxCell id="g6Zyt23YArlqI2WEJ_og-22" value="Client 1:&lt;br&gt;192.168.1.167" style="shape=mxgraph.cisco.computers_and_peripherals.pc;html=1;pointerEvents=1;dashed=0;fillColor=#036897;strokeColor=#ffffff;strokeWidth=2;verticalLabelPosition=bottom;verticalAlign=top;align=center;outlineConnect=0;" vertex="1" parent="1">
          <mxGeometry x="120" y="640" width="78" height="70" as="geometry" />
        </mxCell>
        <mxCell id="g6Zyt23YArlqI2WEJ_og-27" style="rounded=0;orthogonalLoop=1;jettySize=auto;html=1;exitX=0.5;exitY=1;exitDx=0;exitDy=0;exitPerimeter=0;entryX=0.625;entryY=0.2;entryDx=0;entryDy=0;entryPerimeter=0;" edge="1" parent="1" source="g6Zyt23YArlqI2WEJ_og-24" target="g6Zyt23YArlqI2WEJ_og-21">
          <mxGeometry relative="1" as="geometry" />
        </mxCell>
        <mxCell id="g6Zyt23YArlqI2WEJ_og-24" value="Client 2:&lt;br&gt;192.168.1.168" style="shape=mxgraph.cisco.computers_and_peripherals.pc;html=1;pointerEvents=1;dashed=0;fillColor=#036897;strokeColor=#ffffff;strokeWidth=2;verticalLabelPosition=bottom;verticalAlign=top;align=center;outlineConnect=0;" vertex="1" parent="1">
          <mxGeometry x="302" y="640" width="78" height="70" as="geometry" />
        </mxCell>
        <mxCell id="g6Zyt23YArlqI2WEJ_og-28" style="rounded=0;orthogonalLoop=1;jettySize=auto;html=1;exitX=0.02;exitY=1;exitDx=0;exitDy=0;exitPerimeter=0;entryX=0.88;entryY=0.25;entryDx=0;entryDy=0;entryPerimeter=0;" edge="1" parent="1" source="g6Zyt23YArlqI2WEJ_og-25" target="g6Zyt23YArlqI2WEJ_og-21">
          <mxGeometry relative="1" as="geometry" />
        </mxCell>
        <mxCell id="g6Zyt23YArlqI2WEJ_og-25" value="Client 3:&lt;br&gt;192.168.1.169" style="shape=mxgraph.cisco.computers_and_peripherals.pc;html=1;pointerEvents=1;dashed=0;fillColor=#036897;strokeColor=#ffffff;strokeWidth=2;verticalLabelPosition=bottom;verticalAlign=top;align=center;outlineConnect=0;" vertex="1" parent="1">
          <mxGeometry x="480" y="640" width="78" height="70" as="geometry" />
        </mxCell>
        <mxCell id="g6Zyt23YArlqI2WEJ_og-31" value="&lt;font style=&quot;font-size: 22px;&quot;&gt;VPN&lt;/font&gt;" style="text;html=1;strokeColor=none;fillColor=none;align=center;verticalAlign=middle;whiteSpace=wrap;rounded=0;" vertex="1" parent="1">
          <mxGeometry x="498" y="850" width="122" height="70" as="geometry" />
        </mxCell>
        <mxCell id="g6Zyt23YArlqI2WEJ_og-32" value="Distributed Learning" style="text;html=1;strokeColor=none;fillColor=none;align=center;verticalAlign=middle;whiteSpace=wrap;rounded=0;fontSize=22;" vertex="1" parent="1">
          <mxGeometry x="200" y="550" width="262" height="30" as="geometry" />
        </mxCell>
      </root>
    </mxGraphModel>
  </diagram>
</mxfile>
